<?xml version="1.0" standalone="no"?>
<!DOCTYPE svg PUBLIC "-//W3C//DTD SVG 20010904//EN"
 "http://www.w3.org/TR/2001/REC-SVG-20010904/DTD/svg10.dtd">
<svg version="1.0" xmlns="http://www.w3.org/2000/svg"
 width="547.000000pt" height="362.000000pt" viewBox="0 0 547.000000 362.000000"
 preserveAspectRatio="xMidYMid meet">

<g transform="translate(0.000000,362.000000) scale(0.100000,-0.100000)"
fill="#000000" stroke="none">
<path d="M1054 3480 c0 -69 1 -97 3 -62 2 34 2 90 0 125 -2 34 -3 6 -3 -63z"/>
<path d="M1264 3480 c0 -69 1 -97 3 -62 2 34 2 90 0 125 -2 34 -3 6 -3 -63z"/>
<path d="M1864 3480 c0 -69 1 -97 3 -62 2 34 2 90 0 125 -2 34 -3 6 -3 -63z"/>
<path d="M2464 3480 c0 -69 1 -97 3 -62 2 34 2 90 0 125 -2 34 -3 6 -3 -63z"/>
<path d="M3064 3480 c0 -69 1 -97 3 -62 2 34 2 90 0 125 -2 34 -3 6 -3 -63z"/>
<path d="M3664 3480 c0 -69 1 -97 3 -62 2 34 2 90 0 125 -2 34 -3 6 -3 -63z"/>
<path d="M4264 3480 c0 -69 1 -97 3 -62 2 34 2 90 0 125 -2 34 -3 6 -3 -63z"/>
<path d="M4864 3480 c0 -69 1 -97 3 -62 2 34 2 90 0 125 -2 34 -3 6 -3 -63z"/>
<path d="M5464 3480 c0 -69 1 -97 3 -62 2 34 2 90 0 125 -2 34 -3 6 -3 -63z"/>
<path d="M60 3480 l0 -60 38 1 c30 2 32 3 10 6 -22 3 -28 10 -28 28 0 18 6 25
28 28 l27 4 -27 2 c-21 1 -28 6 -28 20 0 14 8 21 28 24 22 3 20 4 -10 6 l-38
1 0 -60z"/>
<path d="M420 3521 c0 -13 -8 -21 -22 -23 -19 -2 -23 -9 -23 -38 0 -32 3 -35
33 -38 l32 -3 0 60 c0 34 -4 61 -10 61 -5 0 -10 -9 -10 -19z m0 -61 c0 -10 -5
-22 -10 -25 -13 -8 -24 20 -16 41 8 20 26 9 26 -16z"/>
<path d="M992 3483 c2 -31 8 -58 13 -60 6 -2 9 20 7 57 -2 33 -8 60 -13 60 -6
0 -9 -25 -7 -57z"/>
<path d="M232 3504 c-7 -8 -8 -15 -2 -19 6 -3 10 -19 10 -36 0 -21 5 -29 17
-29 13 0 14 3 5 12 -14 14 -16 55 -3 60 5 2 4 8 -3 14 -8 8 -15 7 -24 -2z"/>
<path d="M762 3504 c-7 -8 -8 -15 -2 -19 6 -3 10 -19 10 -36 0 -21 5 -29 17
-29 13 0 14 3 5 12 -14 14 -16 55 -3 60 5 2 4 8 -3 14 -8 8 -15 7 -24 -2z"/>
<path d="M157 3493 c-13 -12 -7 -23 18 -35 29 -13 23 -32 -8 -22 -17 5 -19 3
-11 -6 16 -17 48 -9 52 13 3 12 -4 20 -17 24 -12 3 -21 10 -21 15 0 5 10 6 21
3 15 -5 19 -4 15 4 -8 12 -39 15 -49 4z"/>
<path d="M284 3489 c-5 -9 -2 -10 10 -6 10 4 23 4 29 0 7 -4 2 -9 -13 -13 -16
-4 -25 -13 -25 -25 0 -16 7 -20 33 -22 32 -1 33 0 30 35 -3 32 -7 37 -30 40
-14 2 -30 -2 -34 -9z m46 -38 c0 -12 -20 -25 -27 -18 -7 7 6 27 18 27 5 0 9
-4 9 -9z"/>
<path d="M464 3486 c-3 -8 -4 -25 -2 -38 2 -18 9 -23 33 -23 28 0 30 3 30 35
0 31 -3 35 -28 38 -17 2 -29 -2 -33 -12z m44 -43 c-16 -15 -18 -15 -24 0 -3 9
-3 25 0 34 6 15 8 15 24 0 15 -16 15 -18 0 -34z"/>
<path d="M584 3489 c-5 -9 -2 -10 10 -6 10 4 23 4 29 0 7 -4 2 -9 -13 -13 -16
-4 -25 -13 -25 -25 0 -16 7 -20 33 -22 32 -1 33 0 30 35 -3 32 -7 37 -30 40
-14 2 -30 -2 -34 -9z m46 -38 c0 -12 -20 -25 -27 -18 -7 7 6 27 18 27 5 0 9
-4 9 -9z"/>
<path d="M674 3486 c-3 -8 -4 -25 -2 -38 3 -26 42 -38 61 -19 9 9 5 11 -13 9
-21 -3 -25 1 -25 22 0 20 4 25 23 23 13 -2 21 1 17 7 -9 15 -55 12 -61 -4z"/>
<path d="M812 3463 c3 -35 5 -38 36 -39 31 -1 32 1 32 38 0 46 -17 51 -22 6
-2 -18 -7 -33 -13 -33 -5 0 -11 15 -13 33 -2 17 -8 32 -13 32 -6 0 -9 -17 -7
-37z"/>
<path d="M904 3489 c-5 -9 -2 -10 10 -6 10 4 23 4 29 0 7 -4 2 -9 -13 -13 -16
-4 -25 -13 -25 -25 0 -16 7 -20 33 -22 32 -1 33 0 30 35 -3 32 -7 37 -30 40
-14 2 -30 -2 -34 -9z m46 -38 c0 -12 -20 -25 -27 -18 -7 7 6 27 18 27 5 0 9
-4 9 -9z"/>
<path d="M525 3288 c-19 -52 -32 -108 -24 -108 5 0 12 7 15 15 4 8 15 15 25
15 10 0 19 -7 19 -15 0 -8 6 -15 14 -15 11 0 11 10 -4 57 -17 57 -35 77 -45
51z m25 -43 c0 -8 -4 -15 -10 -15 -5 0 -10 7 -10 15 0 8 5 15 10 15 6 0 10 -7
10 -15z"/>
<path d="M1520 3240 c0 -60 0 -60 29 -60 37 0 61 23 61 60 0 37 -24 60 -61 60
-29 0 -29 0 -29 -60z m65 20 c9 -27 -3 -60 -21 -60 -10 0 -14 12 -14 40 0 43
23 57 35 20z"/>
<path d="M2130 3240 c0 -47 3 -60 15 -60 9 0 15 9 15 25 0 18 5 25 20 25 11 0
20 5 20 10 0 6 -9 10 -20 10 -11 0 -20 7 -20 15 0 8 9 15 20 15 11 0 20 5 20
10 0 6 -16 10 -35 10 l-35 0 0 -60z"/>
<path d="M2750 3240 c0 -47 3 -60 15 -60 12 0 15 13 15 60 0 47 -3 60 -15 60
-12 0 -15 -13 -15 -60z"/>
<path d="M490 3000 c0 -60 0 -60 29 -60 37 0 61 23 61 60 0 37 -24 60 -61 60
-29 0 -29 0 -29 -60z m65 20 c9 -27 -3 -60 -21 -60 -10 0 -14 12 -14 40 0 43
23 57 35 20z"/>
<path d="M1530 3000 c0 -47 3 -60 15 -60 9 0 15 9 15 25 0 18 5 25 20 25 11 0
20 5 20 10 0 6 -9 10 -20 10 -11 0 -20 7 -20 15 0 8 9 15 20 15 11 0 20 5 20
10 0 6 -16 10 -35 10 l-35 0 0 -60z"/>
<path d="M2150 3000 c0 -47 3 -60 15 -60 12 0 15 13 15 60 0 47 -3 60 -15 60
-12 0 -15 -13 -15 -60z"/>
<path d="M2720 3000 c0 -47 3 -60 15 -60 9 0 15 9 15 25 0 18 5 25 20 25 15 0
20 -7 20 -25 0 -16 6 -25 15 -25 12 0 15 13 15 60 0 47 -3 60 -15 60 -9 0 -15
-9 -15 -25 0 -18 -5 -25 -20 -25 -15 0 -20 7 -20 25 0 16 -6 25 -15 25 -12 0
-15 -13 -15 -60z"/>
<path d="M3370 3015 c0 -31 -5 -47 -17 -54 -10 -5 -14 -13 -10 -17 4 -5 16 -3
25 2 19 13 31 114 13 114 -6 0 -11 -20 -11 -45z"/>
<path d="M500 2760 c0 -47 3 -60 15 -60 9 0 15 9 15 25 0 18 5 25 20 25 11 0
20 5 20 10 0 6 -9 10 -20 10 -11 0 -20 7 -20 15 0 8 9 15 20 15 11 0 20 5 20
10 0 6 -16 10 -35 10 l-35 0 0 -60z"/>
<path d="M1550 2760 c0 -47 3 -60 15 -60 12 0 15 13 15 60 0 47 -3 60 -15 60
-12 0 -15 -13 -15 -60z"/>
<path d="M2120 2760 c0 -47 3 -60 15 -60 9 0 15 9 15 25 0 18 5 25 20 25 15 0
20 -7 20 -25 0 -16 6 -25 15 -25 12 0 15 13 15 60 0 47 -3 60 -15 60 -9 0 -15
-9 -15 -25 0 -18 -5 -25 -20 -25 -15 0 -20 7 -20 25 0 16 -6 25 -15 25 -12 0
-15 -13 -15 -60z"/>
<path d="M2770 2775 c0 -31 -5 -47 -17 -54 -10 -5 -14 -13 -10 -17 4 -5 16 -3
25 2 19 13 31 114 13 114 -6 0 -11 -20 -11 -45z"/>
<path d="M3336 2804 c-31 -31 -11 -104 29 -104 24 0 45 12 45 26 0 8 -4 14
-10 14 -5 0 -10 -4 -10 -10 0 -5 -9 -10 -19 -10 -22 0 -35 30 -26 60 6 20 45
29 45 10 0 -5 5 -10 10 -10 16 0 11 27 -6 34 -25 10 -42 7 -58 -10z"/>
<path d="M3930 2760 l0 -60 35 0 c19 0 35 5 35 10 0 6 -9 10 -20 10 -11 0 -20
7 -20 15 0 8 9 15 20 15 11 0 20 5 20 10 0 6 -9 10 -20 10 -11 0 -20 7 -20 15
0 8 9 15 20 15 11 0 20 5 20 10 0 6 -16 10 -35 10 l-35 0 0 -60z"/>
<path d="M520 2520 c0 -47 3 -60 15 -60 12 0 15 13 15 60 0 47 -3 60 -15 60
-12 0 -15 -13 -15 -60z"/>
<path d="M1520 2520 c0 -47 3 -60 15 -60 9 0 15 9 15 25 0 18 5 25 20 25 15 0
20 -7 20 -25 0 -16 6 -25 15 -25 12 0 15 13 15 60 0 47 -3 60 -15 60 -9 0 -15
-9 -15 -25 0 -18 -5 -25 -20 -25 -15 0 -20 7 -20 25 0 16 -6 25 -15 25 -12 0
-15 -13 -15 -60z"/>
<path d="M2170 2535 c0 -31 -5 -47 -17 -54 -10 -5 -14 -13 -10 -17 4 -5 16 -3
25 2 19 13 31 114 13 114 -6 0 -11 -20 -11 -45z"/>
<path d="M2736 2564 c-31 -31 -11 -104 29 -104 24 0 45 12 45 26 0 8 -4 14
-10 14 -5 0 -10 -4 -10 -10 0 -19 -39 -10 -45 10 -9 30 4 60 26 60 10 0 19 -4
19 -10 0 -5 5 -10 10 -10 16 0 11 27 -6 34 -25 10 -42 7 -58 -10z"/>
<path d="M3330 2520 l0 -60 35 0 c19 0 35 5 35 10 0 6 -9 10 -20 10 -11 0 -20
7 -20 15 0 8 9 15 20 15 11 0 20 5 20 10 0 6 -9 10 -20 10 -11 0 -20 7 -20 15
0 8 9 15 20 15 11 0 20 5 20 10 0 6 -16 10 -35 10 l-35 0 0 -60z"/>
<path d="M490 2280 c0 -47 3 -60 15 -60 9 0 15 9 15 25 0 18 5 25 20 25 15 0
20 -7 20 -25 0 -16 6 -25 15 -25 12 0 15 13 15 60 0 47 -3 60 -15 60 -9 0 -15
-9 -15 -25 0 -18 -5 -25 -20 -25 -15 0 -20 7 -20 25 0 16 -6 25 -15 25 -12 0
-15 -13 -15 -60z"/>
<path d="M1570 2295 c0 -31 -5 -47 -17 -54 -10 -5 -14 -13 -10 -17 4 -5 16 -3
25 2 19 13 31 114 13 114 -6 0 -11 -20 -11 -45z"/>
<path d="M2136 2324 c-31 -31 -11 -104 29 -104 24 0 45 12 45 26 0 8 -4 14
-10 14 -5 0 -10 -4 -10 -10 0 -5 -9 -10 -19 -10 -22 0 -35 30 -26 60 6 20 45
29 45 10 0 -5 5 -10 10 -10 16 0 11 27 -6 34 -25 10 -42 7 -58 -10z"/>
<path d="M2730 2280 l0 -60 35 0 c19 0 35 5 35 10 0 6 -9 10 -20 10 -11 0 -20
7 -20 15 0 8 9 15 20 15 11 0 20 5 20 10 0 6 -9 10 -20 10 -11 0 -20 7 -20 15
0 8 9 15 20 15 11 0 20 5 20 10 0 6 -16 10 -35 10 l-35 0 0 -60z"/>
<path d="M3330 2280 c0 -47 3 -60 15 -60 8 0 15 9 15 19 0 12 9 21 25 25 19 5
25 13 25 35 0 30 -14 41 -56 41 -23 0 -24 -3 -24 -60z m60 20 c0 -11 -7 -20
-15 -20 -8 0 -15 9 -15 20 0 11 7 20 15 20 8 0 15 -9 15 -20z"/>
<path d="M3936 2324 c-34 -33 -10 -104 34 -104 27 0 50 27 50 60 0 33 -23 60
-50 60 -10 0 -26 -7 -34 -16z m59 -24 c9 -29 -4 -60 -25 -60 -21 0 -34 31 -25
60 3 11 15 20 25 20 10 0 22 -9 25 -20z"/>
<path d="M540 2055 c0 -31 -5 -47 -17 -54 -10 -5 -14 -13 -10 -17 4 -5 16 -3
25 2 19 13 31 114 13 114 -6 0 -11 -20 -11 -45z"/>
<path d="M1536 2084 c-31 -31 -11 -104 29 -104 24 0 45 12 45 26 0 8 -4 14
-10 14 -5 0 -10 -4 -10 -10 0 -5 -9 -10 -19 -10 -22 0 -35 30 -26 60 6 20 45
29 45 10 0 -5 5 -10 10 -10 16 0 11 27 -6 34 -25 10 -42 7 -58 -10z"/>
<path d="M2130 2040 l0 -60 35 0 c19 0 35 5 35 10 0 6 -9 10 -20 10 -11 0 -20
7 -20 15 0 8 9 15 20 15 11 0 20 5 20 10 0 6 -9 10 -20 10 -11 0 -20 7 -20 15
0 8 9 15 20 15 11 0 20 5 20 10 0 6 -16 10 -35 10 l-35 0 0 -60z"/>
<path d="M2730 2040 c0 -47 3 -60 15 -60 8 0 15 9 15 19 0 12 9 21 25 25 19 5
25 13 25 35 0 30 -14 41 -56 41 -23 0 -24 -3 -24 -60z m60 20 c0 -11 -7 -20
-15 -20 -8 0 -15 9 -15 20 0 11 7 20 15 20 8 0 15 -9 15 -20z"/>
<path d="M3336 2084 c-34 -33 -10 -104 34 -104 27 0 50 27 50 60 0 33 -23 60
-50 60 -10 0 -26 -7 -34 -16z m59 -24 c9 -29 -4 -60 -25 -60 -21 0 -34 31 -25
60 3 11 15 20 25 20 10 0 22 -9 25 -20z"/>
<path d="M3930 2040 c0 -47 3 -60 15 -60 10 0 15 10 15 28 l1 27 15 -27 c8
-16 22 -28 30 -28 12 0 11 6 -6 30 -21 29 -21 32 -5 56 22 34 9 46 -15 14
l-20 -25 0 23 c0 13 -6 22 -15 22 -12 0 -15 -13 -15 -60z"/>
<path d="M506 1844 c-20 -20 -20 -68 0 -88 16 -17 33 -20 58 -10 17 7 22 34 6
34 -5 0 -10 -4 -10 -10 0 -19 -39 -10 -45 10 -9 30 4 60 26 60 10 0 19 -4 19
-10 0 -5 5 -10 10 -10 16 0 11 27 -6 34 -25 10 -42 7 -58 -10z"/>
<path d="M1530 1800 l0 -60 35 0 c19 0 35 5 35 10 0 6 -9 10 -20 10 -11 0 -20
7 -20 15 0 8 9 15 20 15 11 0 20 5 20 10 0 6 -9 10 -20 10 -11 0 -20 7 -20 15
0 8 9 15 20 15 11 0 20 5 20 10 0 6 -16 10 -35 10 l-35 0 0 -60z"/>
<path d="M2130 1800 c0 -47 3 -60 15 -60 8 0 15 9 15 19 0 12 9 21 25 25 19 5
25 13 25 35 0 30 -14 41 -56 41 -23 0 -24 -3 -24 -60z m60 20 c0 -11 -7 -20
-15 -20 -8 0 -15 9 -15 20 0 11 7 20 15 20 8 0 15 -9 15 -20z"/>
<path d="M2736 1844 c-34 -33 -10 -104 34 -104 27 0 50 27 50 60 0 33 -23 60
-50 60 -10 0 -26 -7 -34 -16z m59 -24 c9 -29 -4 -60 -25 -60 -10 0 -22 9 -25
20 -9 29 4 60 25 60 10 0 22 -9 25 -20z"/>
<path d="M3330 1800 c0 -47 3 -60 15 -60 10 0 15 10 15 28 l1 27 15 -27 c8
-16 22 -28 30 -28 12 0 11 6 -6 30 -21 29 -21 32 -5 56 22 34 9 46 -15 14
l-20 -25 0 23 c0 13 -6 22 -15 22 -12 0 -15 -13 -15 -60z"/>
<path d="M3930 1850 c0 -5 9 -10 21 -10 20 0 20 -1 -5 -44 -14 -25 -26 -47
-26 -50 0 -3 18 -6 40 -6 22 0 40 5 40 10 0 6 -11 10 -25 10 l-25 0 25 40 c33
52 32 60 -10 60 -19 0 -35 -4 -35 -10z"/>
<path d="M4507 1800 c18 -70 37 -78 48 -17 6 35 8 38 15 22 5 -11 9 -30 9 -42
2 -44 28 -23 44 34 9 31 15 59 12 61 -9 9 -25 -11 -25 -31 0 -12 -4 -28 -9
-36 -6 -10 -11 -1 -16 28 -7 44 -34 58 -36 19 0 -13 -4 -32 -9 -43 -7 -16 -9
-13 -15 23 -4 23 -13 42 -20 42 -10 0 -9 -13 2 -60z"/>
<path d="M500 1560 l0 -60 35 0 c19 0 35 5 35 10 0 6 -9 10 -20 10 -11 0 -20
7 -20 15 0 8 9 15 20 15 11 0 20 5 20 10 0 6 -9 10 -20 10 -11 0 -20 7 -20 15
0 8 9 15 20 15 11 0 20 5 20 10 0 6 -16 10 -35 10 l-35 0 0 -60z"/>
<path d="M1530 1560 c0 -47 3 -60 15 -60 8 0 15 9 15 19 0 12 9 21 25 25 19 5
25 13 25 35 0 30 -14 41 -56 41 -23 0 -24 -3 -24 -60z m60 20 c0 -11 -7 -20
-15 -20 -8 0 -15 9 -15 20 0 11 7 20 15 20 8 0 15 -9 15 -20z"/>
<path d="M2136 1604 c-9 -8 -16 -28 -16 -44 0 -52 50 -78 84 -44 34 33 10 104
-34 104 -10 0 -26 -7 -34 -16z m59 -24 c9 -29 -4 -60 -25 -60 -10 0 -22 9 -25
20 -9 29 4 60 25 60 10 0 22 -9 25 -20z"/>
<path d="M2730 1560 c0 -47 3 -60 15 -60 10 0 15 10 15 28 l1 27 15 -27 c8
-16 22 -28 30 -28 12 0 11 6 -6 30 -21 29 -21 32 -5 56 22 34 9 46 -15 14
l-20 -25 0 23 c0 13 -6 22 -15 22 -12 0 -15 -13 -15 -60z"/>
<path d="M3330 1610 c0 -5 9 -10 21 -10 20 0 20 -1 -5 -44 -14 -25 -26 -47
-26 -50 0 -3 18 -6 40 -6 22 0 40 5 40 10 0 6 -11 10 -25 10 l-25 0 25 40 c33
52 32 60 -10 60 -19 0 -35 -4 -35 -10z"/>
<path d="M3907 1560 c18 -70 37 -78 48 -17 6 35 8 38 15 22 5 -11 9 -30 9 -42
2 -44 28 -23 44 34 9 31 15 59 12 61 -9 9 -25 -11 -25 -31 0 -12 -4 -28 -9
-36 -6 -10 -11 -1 -16 28 -7 44 -34 58 -36 19 0 -13 -4 -32 -9 -43 -7 -16 -9
-13 -15 23 -4 23 -13 42 -20 42 -10 0 -9 -13 2 -60z"/>
<path d="M500 1320 c0 -47 3 -60 15 -60 8 0 15 9 15 19 0 12 9 21 25 25 19 5
25 13 25 35 0 30 -14 41 -56 41 -23 0 -24 -3 -24 -60z m60 20 c0 -11 -7 -20
-15 -20 -8 0 -15 9 -15 20 0 11 7 20 15 20 8 0 15 -9 15 -20z"/>
<path d="M1536 1364 c-34 -33 -10 -104 34 -104 27 0 50 27 50 60 0 33 -23 60
-50 60 -10 0 -26 -7 -34 -16z m59 -24 c9 -29 -4 -60 -25 -60 -21 0 -34 31 -25
60 3 11 15 20 25 20 10 0 22 -9 25 -20z"/>
<path d="M2130 1320 c0 -47 3 -60 15 -60 10 0 15 10 15 28 l1 27 15 -27 c8
-16 22 -28 30 -28 12 0 11 6 -6 30 -21 29 -21 32 -5 56 22 34 9 46 -15 14
l-20 -25 0 23 c0 13 -6 22 -15 22 -12 0 -15 -13 -15 -60z"/>
<path d="M2730 1370 c0 -5 9 -10 21 -10 20 0 20 -1 -5 -44 -14 -25 -26 -47
-26 -50 0 -3 18 -6 40 -6 22 0 40 5 40 10 0 6 -11 10 -25 10 l-25 0 25 40 c33
52 32 60 -10 60 -19 0 -35 -4 -35 -10z"/>
<path d="M3307 1320 c18 -70 37 -78 48 -17 6 35 8 38 15 22 5 -11 9 -30 9 -42
2 -44 28 -23 44 34 9 31 15 59 12 61 -9 9 -25 -11 -25 -31 0 -12 -4 -28 -9
-36 -6 -10 -11 -1 -16 28 -7 44 -34 58 -36 19 0 -13 -4 -32 -9 -43 -7 -16 -9
-13 -15 23 -4 23 -13 42 -20 42 -10 0 -9 -13 2 -60z"/>
<path d="M506 1124 c-20 -20 -20 -68 0 -88 34 -34 84 -8 84 44 0 33 -23 60
-50 60 -10 0 -26 -7 -34 -16z m59 -24 c9 -29 -4 -60 -25 -60 -21 0 -34 31 -25
60 3 11 15 20 25 20 10 0 22 -9 25 -20z"/>
<path d="M1530 1080 c0 -47 3 -60 15 -60 10 0 15 10 15 28 l1 27 15 -27 c8
-16 22 -28 30 -28 12 0 11 6 -6 30 -21 29 -21 32 -5 56 22 34 9 46 -15 14
l-20 -25 0 23 c0 13 -6 22 -15 22 -12 0 -15 -13 -15 -60z"/>
<path d="M2130 1130 c0 -5 9 -10 21 -10 20 0 20 -1 -5 -44 -14 -25 -26 -47
-26 -50 0 -3 18 -6 40 -6 22 0 40 5 40 10 0 6 -11 10 -25 10 l-25 0 25 40 c33
52 32 60 -10 60 -19 0 -35 -4 -35 -10z"/>
<path d="M2707 1080 c18 -70 37 -78 48 -17 6 35 8 38 15 22 5 -11 9 -30 9 -42
2 -44 28 -23 44 34 9 31 15 59 12 61 -9 9 -25 -11 -25 -31 0 -12 -4 -28 -9
-36 -6 -10 -11 -1 -16 28 -7 44 -34 58 -36 19 0 -13 -4 -32 -9 -43 -7 -16 -9
-13 -15 23 -4 23 -13 42 -20 42 -10 0 -9 -13 2 -60z"/>
<path d="M500 840 c0 -47 3 -60 15 -60 10 0 15 10 15 28 l1 27 15 -27 c8 -16
22 -28 30 -28 12 0 11 6 -6 30 -21 29 -21 32 -5 56 22 34 9 46 -15 14 l-20
-25 0 23 c0 13 -6 22 -15 22 -12 0 -15 -13 -15 -60z"/>
<path d="M1530 890 c0 -5 9 -10 21 -10 20 0 20 -1 -5 -44 -14 -25 -26 -47 -26
-50 0 -3 18 -6 40 -6 22 0 40 5 40 10 0 6 -11 10 -25 10 l-25 0 25 40 c33 52
32 60 -10 60 -19 0 -35 -4 -35 -10z"/>
<path d="M2107 840 c18 -70 37 -78 48 -17 6 35 8 38 15 22 5 -11 9 -30 9 -42
2 -44 28 -23 44 34 9 31 15 59 12 61 -9 9 -25 -11 -25 -31 0 -12 -4 -28 -9
-36 -6 -10 -11 -1 -16 28 -7 44 -34 58 -36 19 0 -13 -4 -32 -9 -43 -7 -16 -9
-13 -15 23 -4 23 -13 42 -20 42 -10 0 -9 -13 2 -60z"/>
<path d="M2730 839 l0 -60 38 3 c37 3 37 3 37 48 1 55 -9 70 -46 70 -29 0 -29
-1 -29 -61z m50 26 c0 -8 -4 -15 -10 -15 -5 0 -10 7 -10 15 0 8 5 15 10 15 6
0 10 -7 10 -15z m10 -50 c0 -8 -7 -15 -15 -15 -8 0 -15 7 -15 15 0 8 7 15 15
15 8 0 15 -7 15 -15z"/>
<path d="M500 650 c0 -5 9 -10 21 -10 20 0 20 -1 -5 -44 -14 -25 -26 -47 -26
-50 0 -3 18 -6 40 -6 22 0 40 5 40 10 0 6 -11 10 -25 10 l-25 0 25 40 c33 52
32 60 -10 60 -19 0 -35 -4 -35 -10z"/>
<path d="M1507 600 c18 -70 37 -78 48 -17 6 35 8 38 15 22 5 -11 9 -30 9 -42
2 -44 28 -23 44 34 9 31 15 59 12 61 -9 9 -25 -11 -25 -31 0 -12 -4 -28 -9
-36 -6 -10 -11 -1 -16 28 -7 44 -34 58 -36 19 0 -13 -4 -32 -9 -43 -7 -16 -9
-13 -15 23 -4 23 -13 42 -20 42 -10 0 -9 -13 2 -60z"/>
<path d="M2130 599 l0 -60 38 3 c37 3 37 3 37 48 1 55 -9 70 -46 70 -29 0 -29
-1 -29 -61z m50 26 c0 -8 -4 -15 -10 -15 -5 0 -10 7 -10 15 0 8 5 15 10 15 6
0 10 -7 10 -15z m10 -50 c0 -8 -7 -15 -15 -15 -8 0 -15 7 -15 15 0 8 7 15 15
15 8 0 15 -7 15 -15z"/>
<path d="M477 360 c18 -70 37 -78 48 -17 6 35 8 38 15 22 5 -11 9 -30 9 -42 2
-44 28 -23 44 34 9 31 15 59 12 61 -9 9 -25 -11 -25 -31 0 -12 -4 -28 -9 -36
-6 -10 -11 -1 -16 28 -7 44 -34 58 -36 19 0 -13 -4 -32 -9 -43 -7 -16 -9 -13
-15 23 -4 23 -13 42 -20 42 -10 0 -9 -13 2 -60z"/>
<path d="M1530 359 l0 -60 38 3 c37 3 37 3 37 48 1 55 -9 70 -46 70 -29 0 -29
-1 -29 -61z m50 26 c0 -8 -4 -15 -10 -15 -5 0 -10 7 -10 15 0 8 5 15 10 15 6
0 10 -7 10 -15z m10 -50 c0 -8 -7 -15 -15 -15 -8 0 -15 7 -15 15 0 8 7 15 15
15 8 0 15 -7 15 -15z"/>
<path d="M500 119 l0 -60 38 3 c37 3 37 3 37 48 1 55 -9 70 -46 70 -29 0 -29
-1 -29 -61z m50 26 c0 -8 -4 -15 -10 -15 -5 0 -10 7 -10 15 0 8 5 15 10 15 6
0 10 -7 10 -15z m10 -50 c0 -8 -7 -15 -15 -15 -8 0 -15 7 -15 15 0 8 7 15 15
15 8 0 15 -7 15 -15z"/>
</g>
</svg>
